# Blender v2.77 (sub 0) OBJ File: 'wall-test.blend'
# www.blender.org
mtllib wall-test.mtl
o Wall
v -16.000000 -16.000000 0.100000
v -16.000000 16.000000 0.100000
v -16.000000 -16.000000 -0.600000
v -16.000000 16.000000 -0.600000
v 16.000000 -16.000000 0.100000
v 16.000000 16.000000 0.100000
v 16.000000 -16.000000 -0.600000
v 16.000000 16.000000 -0.600000
vt 1.0302 0.0000
vt 0.9497 2.0000
vt 0.9497 0.0000
vt 1.0302 2.0000
vt 0.9497 -2.0000
vt 1.0302 -4.0000
vt 1.0302 -2.0000
vt -2.7285 2.0000
vt -2.7284 0.0000
vt 4.7083 0.0000
vt 0.9497 4.0000
vt 1.0302 4.0000
vt 0.9497 -4.0000
vt 4.7083 2.0000
vn 1.0000 0.0000 0.0000
vn -1.0000 0.0000 0.0000
vn 0.0000 0.0000 -1.0000
vn 0.0000 0.0000 1.0000
vn 0.0000 -1.0000 0.0000
vn 0.0000 1.0000 0.0000
usemtl Brickwall
s off
f 6/1/1 7/2/1 8/3/1
f 6/1/1 5/4/1 7/2/1
usemtl Brickwall_NONE
f 4/5/2 1/6/2 2/7/2
f 8/3/3 3/8/3 4/9/3
f 2/10/4 5/4/4 6/1/4
f 3/11/5 5/4/5 1/12/5
f 8/3/6 2/7/6 6/1/6
f 4/5/2 3/13/2 1/6/2
f 8/3/3 7/2/3 3/8/3
f 2/10/4 1/14/4 5/4/4
f 3/11/5 7/2/5 5/4/5
f 8/3/6 4/5/6 2/7/6
